<svg width="266" height="266" viewBox="0 0 266 266" fill="none" xmlns="http://www.w3.org/2000/svg">
<rect width="265.798" height="265.798" rx="53.1596" fill="url(#paint0_linear_0_3270)"/>
<path d="M112.117 79.7737C130.68 72.1442 150.878 74.865 166.401 85.2375C167.176 85.7556 167.355 86.8047 166.827 87.5569L163.903 91.7229C163.783 91.8934 163.638 92.0288 163.494 92.137C163.351 92.2446 163.217 92.363 163.097 92.4915L163.094 92.4944C159.096 96.7218 154.06 99.7888 148.514 101.368L148.505 101.371C145.82 102.079 142.9 102.19 140.142 102.161C137.476 102.134 135.01 101.982 132.939 102.076C132.851 102.154 132.738 102.206 132.606 102.214C114.877 103.269 101.065 118.602 101.754 136.495L101.8 137.33C101.857 138.164 101.942 138.994 102.055 139.81L102.06 139.846V139.905C102.258 141.32 102.55 142.726 102.937 144.096L103.111 144.686L103.114 144.696L103.117 144.706C103.816 147.39 104.206 150.153 104.257 152.943V152.956C104.219 158.159 102.903 164.247 99.5504 170.897C99.5147 170.968 99.4737 171.036 99.4283 171.101L95.6285 176.53C95.3456 176.934 94.7661 176.989 94.4108 176.649C94.3999 176.638 94.3887 176.627 94.3776 176.616C94.3555 176.601 94.3338 176.585 94.3141 176.567C93.8907 176.166 93.4792 175.767 93.068 175.354V175.353C87.7065 170.001 83.3126 163.499 80.2721 156.026C68.1205 126.128 82.3708 91.9785 112.117 79.7737Z" fill="#243628" stroke="#1E1E1E" stroke-width="1.04736" stroke-miterlimit="10"/>
<path d="M172.091 92.1091C172.669 91.2855 173.853 91.1512 174.586 91.864C180.21 97.3282 184.824 104.035 187.972 111.773C200.124 141.671 185.872 175.82 156.126 188.037C139.539 194.851 121.637 193.414 106.933 185.615L106.929 185.613C106.432 185.344 105.928 185.072 105.425 184.786L105.417 184.782L105.409 184.777C104.655 184.313 103.905 183.848 103.159 183.369C102.366 182.859 102.171 181.796 102.705 181.032L105.679 176.78C105.725 176.714 105.777 176.651 105.833 176.592C111.453 170.666 119.514 167.507 127.065 167.169L127.716 167.143C129.157 167.098 130.068 167.144 130.996 167.182C132.044 167.225 133.127 167.257 135.076 167.131L135.093 167.13H135.134C152.732 166.15 166.543 151.098 166.135 133.354C166.133 133.273 166.136 133.191 166.146 133.112C166.426 130.725 166.096 128.503 165.615 126.031C165.137 123.57 164.507 120.859 164.243 117.585C164.078 115.557 164.379 112.045 165.15 108.237C165.922 104.422 167.177 100.25 168.952 96.9089L168.958 96.8972L168.965 96.8865C169.062 96.7234 169.139 96.538 169.211 96.3327C169.262 96.1871 169.333 96.0422 169.428 95.907L172.091 92.1091Z" fill="#243628" stroke="#1E1E1E" stroke-width="1.04736" stroke-miterlimit="10"/>
<defs>
<linearGradient id="paint0_linear_0_3270" x1="132.899" y1="0" x2="132.899" y2="265.798" gradientUnits="userSpaceOnUse">
<stop stop-color="white"/>
<stop offset="1" stop-color="#EAE9E9"/>
</linearGradient>
</defs>
</svg>
