<svg width="160" height="26" viewBox="0 0 160 26" fill="none" xmlns="http://www.w3.org/2000/svg">
<path d="M2.6687 7.32634C2.92534 7.5075 3.16864 7.70172 3.41072 7.90158C3.57103 8.03385 3.73281 8.16428 3.89452 8.29485C3.97772 8.36206 4.06085 8.42938 4.14389 8.49679C4.40687 8.71016 4.67199 8.92045 4.9394 9.12827C5.33906 9.43894 5.73253 9.75687 6.12557 10.0758C6.30219 10.219 6.47958 10.3613 6.65776 10.5026C6.87739 10.6768 7.09549 10.8528 7.31318 11.0295C7.6996 11.343 8.08814 11.6532 8.48107 11.9585C8.79802 12.2055 9.10998 12.4583 9.42182 12.7116C9.68482 12.9249 9.94986 13.1352 10.2172 13.343C10.5696 13.6168 10.9168 13.8964 11.2631 14.1777C11.5246 14.3898 11.7884 14.5987 12.0545 14.8051C12.3773 15.0557 12.6943 15.3126 13.0096 15.5725C13.4639 15.9468 13.9242 16.3124 14.3904 16.6719C14.4411 16.7118 14.4918 16.7516 14.5441 16.7927C14.587 16.8259 14.63 16.8591 14.6742 16.8934C14.7092 16.9206 14.7442 16.9479 14.7802 16.9759C14.8979 17.0558 14.8979 17.0558 15.1268 17.0995C15.1268 13.7937 15.1268 10.488 15.1268 7.08201C15.6534 7.08201 16.18 7.08201 16.7225 7.08201C16.7282 8.39246 16.7325 9.70289 16.7352 11.0133C16.7365 11.6219 16.7382 12.2304 16.741 12.8389C16.7434 13.3694 16.745 13.9 16.7456 14.4306C16.7459 14.7113 16.7466 14.9921 16.7484 15.2728C16.7501 15.5375 16.7506 15.8021 16.7502 16.0668C16.7503 16.1635 16.7508 16.2603 16.7517 16.357C16.7575 16.981 16.7285 17.5808 16.3389 18.0997C15.9485 18.4706 15.5279 18.6841 14.9811 18.7067C14.0463 18.6769 13.3677 17.9369 12.6881 17.3751C12.4607 17.1877 12.2301 17.005 11.997 16.8246C11.6753 16.5755 11.3596 16.3199 11.0457 16.0611C10.6964 15.7732 10.3441 15.4903 9.98638 15.2129C9.71272 15.0002 9.4429 14.7831 9.17394 14.5646C8.8694 14.3172 8.56321 14.0724 8.25339 13.8316C7.90112 13.5578 7.55396 13.2782 7.2077 12.997C6.9447 12.7837 6.67965 12.5734 6.41228 12.3656C6.06001 12.0919 5.71285 11.8123 5.36659 11.531C5.10359 11.3178 4.83855 11.1075 4.57118 10.8997C4.21931 10.6262 3.8725 10.347 3.5267 10.066C3.21674 9.81454 2.90336 9.56781 2.58772 9.32349C2.40101 9.17846 2.21992 9.02972 2.04349 8.87249C1.88443 8.71184 1.88443 8.71184 1.68678 8.73124C1.66653 12.0169 1.64628 15.3025 1.62541 18.6877C1.09885 18.6877 0.572299 18.6877 0.0297866 18.6877C0.024098 17.3682 0.0197201 16.0487 0.0170677 14.7293C0.0158032 14.1166 0.01408 13.5039 0.0112676 12.8912C0.00881681 12.3571 0.00723615 11.8229 0.00668964 11.2887C0.0063703 11.006 0.00562258 10.7233 0.00383187 10.4406C0.00215803 10.1742 0.0016532 9.9078 0.00202081 9.64137C0.00195362 9.54392 0.0014699 9.44646 0.00052392 9.34901C-0.00519064 8.72961 0.0297546 8.18607 0.41335 7.67375C1.05329 7.05129 1.8785 6.88166 2.6687 7.32634Z" fill="#080808"/>
<path d="M22.2508 7.07439C22.3077 7.07428 22.3645 7.07418 22.4231 7.07407C22.6122 7.07387 22.8013 7.07454 22.9904 7.07521C23.1266 7.07524 23.2627 7.07523 23.3988 7.07516C23.7674 7.07512 24.1359 7.07584 24.5045 7.07669C24.89 7.07746 25.2755 7.07753 25.6611 7.07767C26.3078 7.07801 26.9546 7.07877 27.6014 7.07986C28.2673 7.08099 28.9333 7.08185 29.5993 7.08237C29.6609 7.08242 29.6609 7.08242 29.7238 7.08247C29.93 7.08262 30.1362 7.08278 30.3424 7.08293C32.0511 7.08421 33.7598 7.08638 35.4685 7.08908C35.4685 7.61317 35.4685 8.13725 35.4685 8.67722C35.2122 8.67755 35.2122 8.67755 34.9507 8.67789C33.3415 8.68011 31.7323 8.68366 30.1231 8.68845C29.9584 8.68894 29.7936 8.68942 29.6289 8.6899C29.5879 8.69001 29.547 8.69013 29.5048 8.69025C28.8424 8.69215 28.1801 8.69319 27.5178 8.69391C26.8377 8.69467 26.1577 8.69637 25.4777 8.69888C25.0959 8.70026 24.7141 8.70122 24.3323 8.70116C23.9728 8.70111 23.6132 8.70221 23.2537 8.70417C23.1219 8.70469 22.9901 8.70479 22.8584 8.70445C22.678 8.70404 22.4976 8.70514 22.3172 8.7066C22.2397 8.70589 22.2397 8.70589 22.1606 8.70517C21.6799 8.71201 21.2311 8.84802 20.87 9.17351C20.1599 10.0499 20.4056 10.9404 20.3714 12.0978C25.3534 12.0978 30.3355 12.0978 35.4685 12.0978C35.4685 12.6219 35.4685 13.146 35.4685 13.686C30.4864 13.686 25.5044 13.686 20.3714 13.686C20.301 15.2849 20.301 15.2849 20.8087 16.5759C21.2925 17.0261 21.8212 17.1155 22.4575 17.1162C22.5409 17.1167 22.5409 17.1167 22.6261 17.1172C22.8126 17.1181 22.999 17.1186 23.1855 17.1191C23.3192 17.1197 23.4529 17.1203 23.5865 17.121C23.9495 17.1226 24.3125 17.1239 24.6755 17.1251C25.0548 17.1264 25.4341 17.1281 25.8134 17.1298C26.5317 17.1328 27.2501 17.1356 27.9684 17.1382C28.7862 17.1412 29.6039 17.1446 30.4217 17.1479C32.104 17.1549 33.7862 17.1614 35.4685 17.1677C35.4685 17.6716 35.4685 18.1755 35.4685 18.6947C33.7038 18.6976 31.939 18.6997 30.1743 18.7011C29.3549 18.7017 28.5355 18.7025 27.7161 18.7039C27.0018 18.7052 26.2875 18.7059 25.5732 18.7062C25.195 18.7064 24.8169 18.7068 24.4388 18.7076C24.0826 18.7085 23.7265 18.7087 23.3703 18.7085C23.2398 18.7086 23.1094 18.7088 22.9789 18.7093C21.7238 18.7136 20.6585 18.5992 19.687 17.72C19.0144 17.0274 18.7561 16.1715 18.7589 15.2279C18.7586 15.1717 18.7583 15.1156 18.758 15.0578C18.7571 14.8743 18.7572 14.6908 18.7573 14.5072C18.7571 14.3784 18.7568 14.2496 18.7565 14.1207C18.7561 13.8514 18.7561 13.582 18.7564 13.3127C18.7568 12.9692 18.7557 12.6257 18.7543 12.2822C18.7534 12.0163 18.7533 11.7504 18.7535 11.4845C18.7535 11.3579 18.7532 11.2313 18.7526 11.1047C18.7472 9.85407 18.9145 8.87903 19.8191 7.94423C20.5227 7.34346 21.3345 7.06813 22.2508 7.07439Z" fill="#080808"/>
<path d="M37.4683 7.09464C39.8247 6.93873 39.8247 6.93873 40.3344 7.37886C40.471 7.52846 40.5955 7.68098 40.7099 7.84803C40.8053 7.98222 40.9187 8.07998 41.0469 8.18267C41.3848 8.47248 41.7141 8.7718 42.0451 9.06932C42.2775 9.27791 42.5102 9.48601 42.7461 9.69064C43.0891 9.9882 43.4258 10.2929 43.7635 10.5964C44.0767 10.8775 44.3919 11.1559 44.7099 11.4315C44.802 11.5116 44.8941 11.5918 44.9861 11.672C45.0272 11.7078 45.0684 11.7437 45.1108 11.7806C45.1405 11.8065 45.1703 11.8324 45.2009 11.8591C45.4815 11.7829 45.6276 11.629 45.8223 11.4265C45.9724 11.2736 46.1333 11.1359 46.2957 10.9963C46.5478 10.7785 46.7943 10.5546 47.042 10.332C47.6243 9.80862 47.6243 9.80862 47.8974 9.5723C48.1548 9.34916 48.4065 9.11982 48.6587 8.89085C48.832 8.73461 49.0077 8.58153 49.1842 8.42891C49.3412 8.29132 49.4957 8.15117 49.6502 8.01088C50.2201 7.494 50.2201 7.494 50.4787 7.27789C50.5104 7.24617 50.5422 7.21445 50.5748 7.18176C50.795 7.05339 51.0106 7.07204 51.2583 7.07675C51.3355 7.07714 51.3355 7.07714 51.4141 7.07753C51.578 7.07856 51.7418 7.08086 51.9056 7.08319C52.0168 7.08411 52.1281 7.08495 52.2393 7.0857C52.5116 7.08771 52.784 7.09088 53.0563 7.09464C52.9119 7.27675 52.7748 7.44187 52.596 7.59094C52.3769 7.77729 52.1634 7.96907 51.9516 8.16358C51.7491 8.34923 51.546 8.53384 51.3379 8.71333C51.0999 8.91876 50.8681 9.13072 50.6363 9.34297C50.3403 9.61382 50.0416 9.88154 49.7423 10.1488C49.64 10.2404 49.5377 10.332 49.4354 10.4236C49.0263 10.7901 48.6172 11.1566 48.208 11.5231C48.1573 11.5686 48.1065 11.6141 48.0541 11.661C47.9535 11.7511 47.8528 11.8412 47.7521 11.9311C47.3491 12.2912 46.9497 12.6549 46.551 13.0196C46.7971 13.2678 47.0504 13.5073 47.3067 13.745C47.3477 13.7831 47.3887 13.8212 47.431 13.8604C47.6687 14.0804 47.9082 14.2974 48.1541 14.5083C48.4541 14.7672 48.7466 15.0348 49.0413 15.2997C49.2724 15.5071 49.5037 15.714 49.7385 15.9172C49.9959 16.1403 50.2474 16.3695 50.4996 16.5984C50.6745 16.7562 50.8518 16.911 51.0299 17.0651C51.172 17.1891 51.3126 17.3146 51.453 17.4405C51.5046 17.4867 51.5561 17.5329 51.6093 17.5805C51.7151 17.6758 51.8206 17.7714 51.9257 17.8673C52.2026 18.1188 52.4808 18.356 52.7863 18.5724C52.8288 18.6055 52.8288 18.6055 52.8722 18.6392C52.8722 18.6594 52.8722 18.6795 52.8722 18.7003C52.5459 18.7186 52.22 18.7318 51.8934 18.7406C51.7827 18.7442 51.6721 18.7492 51.5615 18.7556C50.5454 18.8129 50.5454 18.8129 50.1208 18.4458C49.9651 18.2931 49.8233 18.1325 49.6809 17.9673C49.5968 17.8905 49.5116 17.8148 49.4239 17.7421C49.245 17.5882 49.0695 17.431 48.8946 17.2725C48.6874 17.086 48.4761 16.9079 48.2579 16.7342C47.8856 16.4347 47.5402 16.109 47.1921 15.7824C47.0004 15.6028 46.805 15.4285 46.6055 15.2575C46.4629 15.1344 46.3229 15.0086 46.1828 14.8826C46.1314 14.8368 46.08 14.791 46.027 14.7438C45.9291 14.6556 45.8321 14.5662 45.7365 14.4756C45.6939 14.4361 45.6513 14.3965 45.6075 14.3558C45.5517 14.3027 45.5517 14.3027 45.4948 14.2484C45.3898 14.1691 45.3898 14.1691 45.2666 14.184C45.0965 14.2607 44.9841 14.366 44.848 14.4932C44.7939 14.5432 44.7398 14.5931 44.6841 14.6445C44.6318 14.6929 44.5796 14.7412 44.5258 14.791C44.4443 14.8627 44.3625 14.934 44.2803 15.0048C44.0945 15.1659 43.9109 15.3292 43.728 15.4935C43.5061 15.6928 43.2822 15.8898 43.0568 16.0852C42.9112 16.2125 42.7672 16.3415 42.6234 16.4708C42.4014 16.6701 42.1776 16.8671 41.9521 17.0625C41.8065 17.1899 41.6626 17.3189 41.5187 17.4481C41.0773 17.8445 41.0773 17.8445 40.8515 18.0322C40.7171 18.1481 40.7171 18.1481 40.6061 18.2905C40.3783 18.5462 40.1788 18.7075 39.8331 18.7448C39.5122 18.7611 39.1928 18.7484 38.8721 18.7346C38.7596 18.7319 38.6471 18.7294 38.5346 18.7271C38.2608 18.7211 37.9873 18.7117 37.7137 18.7003C37.8808 18.5332 38.0479 18.3669 38.2212 18.2064C38.2565 18.1737 38.2918 18.1411 38.3281 18.1074C38.3646 18.0738 38.4011 18.0401 38.4387 18.0055C38.4959 17.9527 38.4959 17.9527 38.5543 17.8988C38.784 17.6873 39.0159 17.4789 39.2528 17.2754C39.396 17.1514 39.5367 17.0249 39.6776 16.8984C39.8995 16.699 40.1234 16.5021 40.3488 16.3066C40.4944 16.1793 40.6384 16.0503 40.7823 15.921C41.0042 15.7217 41.228 15.5247 41.4535 15.3293C41.5991 15.202 41.743 15.073 41.8869 14.9437C42.1089 14.7444 42.3327 14.5474 42.5581 14.352C42.7563 14.1787 42.9516 14.0023 43.1474 13.8263C43.3231 13.6695 43.5008 13.5153 43.6796 13.362C43.8026 13.2521 43.9189 13.1368 44.0349 13.0196C43.7619 12.7414 43.4841 12.474 43.1879 12.2203C43.0282 12.0819 42.8718 11.9401 42.7154 11.798C42.524 11.6242 42.332 11.4515 42.1362 11.2826C41.8939 11.0731 41.6581 10.8568 41.422 10.6404C41.2127 10.449 41.0006 10.2613 40.7858 10.076C40.5703 9.88746 40.3592 9.69392 40.1472 9.50143C40.0136 9.38099 39.879 9.26223 39.7428 9.14472C39.5005 8.93524 39.2647 8.7189 39.0286 8.50255C38.8197 8.3115 38.6081 8.12427 38.3938 7.9393C37.7628 7.38784 37.7628 7.38784 37.4683 7.09464Z" fill="#080808"/>
<path d="M55.0564 7.08887C55.583 7.08887 56.1095 7.08887 56.652 7.08887C56.652 10.9187 56.652 14.7486 56.652 18.6945C56.1255 18.6945 55.5989 18.6945 55.0564 18.6945C55.0564 14.8646 55.0564 11.0348 55.0564 7.08887Z" fill="#080808"/>
<path d="M62.1109 7.0783C62.1958 7.07822 62.1958 7.07822 62.2825 7.07814C62.4724 7.07804 62.6623 7.07838 62.8521 7.07871C62.9882 7.07873 63.1243 7.07872 63.2604 7.07869C63.63 7.07867 63.9996 7.07903 64.3692 7.07945C64.7553 7.07983 65.1415 7.07987 65.5277 7.07994C66.176 7.08011 66.8242 7.08049 67.4724 7.08104C68.1401 7.0816 68.8077 7.08203 69.4754 7.08229C69.5371 7.08232 69.5371 7.08232 69.6001 7.08234C69.8066 7.08242 70.0131 7.0825 70.2196 7.08257C71.9324 7.08321 73.6452 7.0843 75.358 7.08565C75.358 7.60973 75.358 8.13382 75.358 8.67379C75.1017 8.67412 75.1017 8.67412 74.8403 8.67446C73.2311 8.67668 71.6219 8.68023 70.0127 8.68502C69.8479 8.68551 69.6832 8.68599 69.5184 8.68646C69.4775 8.68658 69.4365 8.6867 69.3943 8.68682C68.732 8.68872 68.0697 8.68975 67.4074 8.69047C66.7273 8.69123 66.0473 8.69293 65.3672 8.69545C64.9854 8.69683 64.6037 8.69779 64.2219 8.69772C63.8623 8.69768 63.5028 8.69877 63.1432 8.70074C63.0115 8.70125 62.8797 8.70136 62.7479 8.70102C62.5675 8.70061 62.3872 8.70171 62.2068 8.70317C62.1293 8.70246 62.1293 8.70246 62.0501 8.70173C61.5816 8.7084 61.1467 8.82402 60.8133 9.16245C60.7728 9.16245 60.7323 9.16245 60.6906 9.16245C60.6642 9.2156 60.6642 9.2156 60.6373 9.26982C60.5943 9.35455 60.5496 9.43846 60.5021 9.52083C60.2823 9.93739 60.2592 10.3489 60.3223 10.8117C60.4026 11.0318 60.5087 11.2223 60.6292 11.4225C60.6494 11.483 60.6697 11.5434 60.6906 11.6057C60.8029 11.6742 60.8029 11.6742 60.936 11.7279C60.9979 11.7592 60.9979 11.7592 61.0609 11.7911C61.1225 11.8222 61.1225 11.8222 61.1854 11.8539C61.2472 11.8852 61.2472 11.8852 61.3103 11.9171C61.5614 12.0357 61.7629 12.0412 62.0384 12.0417C62.0821 12.0419 62.1258 12.0421 62.1709 12.0423C62.3179 12.0428 62.4649 12.0429 62.6118 12.0429C62.7171 12.0432 62.8223 12.0435 62.9276 12.0439C63.1545 12.0446 63.3815 12.0451 63.6084 12.0455C63.9677 12.0461 64.327 12.0474 64.6864 12.0487C65.7083 12.0525 66.7302 12.0558 67.7521 12.0578C68.3163 12.059 68.8804 12.0607 69.4446 12.0632C69.743 12.0645 70.0413 12.0654 70.3397 12.0656C70.6208 12.0657 70.902 12.0667 71.1831 12.0683C71.2858 12.0687 71.3885 12.0689 71.4912 12.0687C72.5938 12.0668 73.5412 12.2663 74.3608 13.0507C74.9897 13.7028 75.3485 14.4683 75.3772 15.3776C75.3579 16.219 75.0717 17.0538 74.4849 17.6765C73.4274 18.634 72.3211 18.7101 70.9622 18.7052C70.8279 18.7051 70.6936 18.7051 70.5593 18.7052C70.1962 18.7052 69.8331 18.7045 69.47 18.7037C69.0899 18.7029 68.7099 18.7028 68.3298 18.7027C67.6109 18.7023 66.8919 18.7013 66.1729 18.7001C65.3541 18.6987 64.5353 18.6981 63.7165 18.6974C62.0328 18.6962 60.3491 18.694 58.6654 18.6913C58.6654 18.1874 58.6654 17.6834 58.6654 17.1642C58.8339 17.1639 59.0025 17.1635 59.1761 17.1631C60.7636 17.1597 62.3512 17.1552 63.9387 17.1498C64.7548 17.1471 65.571 17.1447 66.3872 17.1431C67.0987 17.1417 67.8101 17.1396 68.5216 17.1368C68.8982 17.1354 69.2748 17.1342 69.6515 17.1338C70.0062 17.1335 70.3609 17.1322 70.7156 17.1304C70.8456 17.1298 70.9756 17.1296 71.1056 17.1297C71.2836 17.1298 71.4615 17.1288 71.6395 17.1275C71.6904 17.1278 71.7414 17.1281 71.794 17.1284C72.3037 17.1223 72.7638 17.0228 73.1487 16.6756C73.1892 16.6756 73.2297 16.6756 73.2715 16.6756C73.2891 16.6404 73.3067 16.6052 73.3249 16.5689C73.3689 16.4815 73.4132 16.3941 73.4577 16.3069C73.4785 16.2661 73.4993 16.2252 73.5208 16.1831C73.5417 16.1421 73.5627 16.1011 73.5843 16.0588C73.7706 15.6678 73.7697 15.236 73.6361 14.8281C73.4038 14.3263 73.1396 14.0752 72.6518 13.8322C72.23 13.6781 71.765 13.7183 71.3219 13.7201C71.2174 13.7199 71.1128 13.7195 71.0082 13.7191C70.7836 13.7184 70.559 13.7183 70.3344 13.7185C69.9787 13.719 69.6229 13.718 69.2671 13.7168C68.5115 13.7145 67.7558 13.7137 67.0002 13.7131C66.1853 13.7124 65.3704 13.7115 64.5556 13.7088C64.2026 13.7076 63.8496 13.7074 63.4966 13.7078C63.2761 13.7079 63.0556 13.7073 62.8351 13.7064C62.7336 13.7062 62.6321 13.7062 62.5306 13.7066C61.386 13.7109 60.4093 13.5086 59.5581 12.6957C58.8913 11.9546 58.6421 11.1568 58.6524 10.1798C58.7048 9.27596 59.1109 8.49417 59.77 7.87972C60.4342 7.30704 61.2476 7.07539 62.1109 7.0783Z" fill="#080808"/>
</svg>
