<svg width="160" height="26" viewBox="0 0 160 26" fill="none" xmlns="http://www.w3.org/2000/svg">
<path d="M11.6687 7.32634C11.9253 7.5075 12.1686 7.70172 12.4107 7.90158C12.571 8.03385 12.7328 8.16428 12.8945 8.29485C12.9777 8.36206 13.0608 8.42938 13.1439 8.49679C13.4069 8.71016 13.672 8.92045 13.9394 9.12827C14.3391 9.43894 14.7325 9.75687 15.1256 10.0758C15.3022 10.219 15.4796 10.3613 15.6578 10.5026C15.8774 10.6768 16.0955 10.8528 16.3132 11.0295C16.6996 11.343 17.0881 11.6532 17.4811 11.9585C17.798 12.2055 18.11 12.4583 18.4218 12.7116C18.6848 12.9249 18.9499 13.1352 19.2172 13.343C19.5696 13.6168 19.9168 13.8964 20.2631 14.1777C20.5246 14.3898 20.7884 14.5987 21.0545 14.8051C21.3773 15.0557 21.6943 15.3126 22.0096 15.5725C22.4639 15.9468 22.9242 16.3124 23.3904 16.6719C23.4411 16.7118 23.4918 16.7516 23.5441 16.7927C23.587 16.8259 23.63 16.8591 23.6742 16.8934C23.7092 16.9206 23.7442 16.9479 23.7802 16.9759C23.8979 17.0558 23.8979 17.0558 24.1268 17.0995C24.1268 13.7937 24.1268 10.488 24.1268 7.08201C24.6534 7.08201 25.18 7.08201 25.7225 7.08201C25.7282 8.39246 25.7325 9.70289 25.7352 11.0133C25.7365 11.6219 25.7382 12.2304 25.741 12.8389C25.7434 13.3694 25.745 13.9 25.7456 14.4306C25.7459 14.7113 25.7466 14.9921 25.7484 15.2728C25.7501 15.5375 25.7506 15.8021 25.7502 16.0668C25.7503 16.1635 25.7508 16.2603 25.7517 16.357C25.7575 16.981 25.7285 17.5808 25.3389 18.0997C24.9485 18.4706 24.5279 18.6841 23.9811 18.7067C23.0463 18.6769 22.3677 17.9369 21.6881 17.3751C21.4607 17.1877 21.2301 17.005 20.997 16.8246C20.6753 16.5755 20.3596 16.3199 20.0457 16.0611C19.6964 15.7732 19.3441 15.4903 18.9864 15.2129C18.7127 15.0002 18.4429 14.7831 18.1739 14.5646C17.8694 14.3172 17.5632 14.0724 17.2534 13.8316C16.9011 13.5578 16.554 13.2782 16.2077 12.997C15.9447 12.7837 15.6797 12.5734 15.4123 12.3656C15.06 12.0919 14.7129 11.8123 14.3666 11.531C14.1036 11.3178 13.8386 11.1075 13.5712 10.8997C13.2193 10.6262 12.8725 10.347 12.5267 10.066C12.2167 9.81454 11.9034 9.56781 11.5877 9.32349C11.401 9.17846 11.2199 9.02972 11.0435 8.87249C10.8844 8.71184 10.8844 8.71184 10.6868 8.73124C10.6665 12.0169 10.6463 15.3025 10.6254 18.6877C10.0989 18.6877 9.5723 18.6877 9.02979 18.6877C9.0241 17.3682 9.01972 16.0487 9.01707 14.7293C9.0158 14.1166 9.01408 13.5039 9.01127 12.8912C9.00882 12.3571 9.00724 11.8229 9.00669 11.2887C9.00637 11.006 9.00562 10.7233 9.00383 10.4406C9.00216 10.1742 9.00165 9.9078 9.00202 9.64137C9.00195 9.54392 9.00147 9.44646 9.00052 9.34901C8.99481 8.72961 9.02975 8.18607 9.41335 7.67375C10.0533 7.05129 10.8785 6.88166 11.6687 7.32634Z" fill="white"/>
<path d="M31.2508 7.07439C31.3077 7.07428 31.3645 7.07418 31.4231 7.07407C31.6122 7.07387 31.8013 7.07454 31.9904 7.07521C32.1266 7.07524 32.2627 7.07523 32.3988 7.07516C32.7674 7.07512 33.1359 7.07584 33.5045 7.07669C33.89 7.07746 34.2755 7.07753 34.6611 7.07767C35.3078 7.07801 35.9546 7.07877 36.6014 7.07986C37.2673 7.08099 37.9333 7.08185 38.5993 7.08237C38.6609 7.08242 38.6609 7.08242 38.7238 7.08247C38.93 7.08262 39.1362 7.08278 39.3424 7.08293C41.0511 7.08421 42.7598 7.08638 44.4685 7.08908C44.4685 7.61317 44.4685 8.13725 44.4685 8.67722C44.2122 8.67755 44.2122 8.67755 43.9507 8.67789C42.3415 8.68011 40.7323 8.68366 39.1231 8.68845C38.9584 8.68894 38.7936 8.68942 38.6289 8.6899C38.5879 8.69001 38.547 8.69013 38.5048 8.69025C37.8424 8.69215 37.1801 8.69319 36.5178 8.69391C35.8377 8.69467 35.1577 8.69637 34.4777 8.69888C34.0959 8.70026 33.7141 8.70122 33.3323 8.70116C32.9728 8.70111 32.6132 8.70221 32.2537 8.70417C32.1219 8.70469 31.9901 8.70479 31.8584 8.70445C31.678 8.70404 31.4976 8.70514 31.3172 8.7066C31.2397 8.70589 31.2397 8.70589 31.1606 8.70517C30.6799 8.71201 30.2311 8.84802 29.87 9.17351C29.1599 10.0499 29.4056 10.9404 29.3714 12.0978C34.3534 12.0978 39.3355 12.0978 44.4685 12.0978C44.4685 12.6219 44.4685 13.146 44.4685 13.686C39.4864 13.686 34.5044 13.686 29.3714 13.686C29.301 15.2849 29.301 15.2849 29.8087 16.5759C30.2925 17.0261 30.8212 17.1155 31.4575 17.1162C31.5409 17.1167 31.5409 17.1167 31.6261 17.1172C31.8126 17.1181 31.999 17.1186 32.1855 17.1191C32.3192 17.1197 32.4529 17.1203 32.5865 17.121C32.9495 17.1226 33.3125 17.1239 33.6755 17.1251C34.0548 17.1264 34.4341 17.1281 34.8134 17.1298C35.5317 17.1328 36.2501 17.1356 36.9684 17.1382C37.7862 17.1412 38.6039 17.1446 39.4217 17.1479C41.104 17.1549 42.7862 17.1614 44.4685 17.1677C44.4685 17.6716 44.4685 18.1755 44.4685 18.6947C42.7038 18.6976 40.939 18.6997 39.1743 18.7011C38.3549 18.7017 37.5355 18.7025 36.7161 18.7039C36.0018 18.7052 35.2875 18.7059 34.5732 18.7062C34.195 18.7064 33.8169 18.7068 33.4388 18.7076C33.0826 18.7085 32.7265 18.7087 32.3703 18.7085C32.2398 18.7086 32.1094 18.7088 31.9789 18.7093C30.7238 18.7136 29.6585 18.5992 28.687 17.72C28.0144 17.0274 27.7561 16.1715 27.7589 15.2279C27.7586 15.1717 27.7583 15.1156 27.758 15.0578C27.7571 14.8743 27.7572 14.6908 27.7573 14.5072C27.7571 14.3784 27.7568 14.2496 27.7565 14.1207C27.7561 13.8514 27.7561 13.582 27.7564 13.3127C27.7568 12.9692 27.7557 12.6257 27.7543 12.2822C27.7534 12.0163 27.7533 11.7504 27.7535 11.4845C27.7535 11.3579 27.7532 11.2313 27.7526 11.1047C27.7472 9.85407 27.9145 8.87903 28.8191 7.94423C29.5227 7.34346 30.3345 7.06813 31.2508 7.07439Z" fill="white"/>
<path d="M46.4683 7.09464C48.8247 6.93873 48.8247 6.93873 49.3344 7.37886C49.471 7.52846 49.5955 7.68098 49.7099 7.84803C49.8053 7.98222 49.9187 8.07998 50.0469 8.18267C50.3848 8.47248 50.7141 8.7718 51.0451 9.06932C51.2775 9.27791 51.5102 9.48601 51.7461 9.69064C52.0891 9.9882 52.4258 10.2929 52.7635 10.5964C53.0767 10.8775 53.3919 11.1559 53.7099 11.4315C53.802 11.5116 53.8941 11.5918 53.9861 11.672C54.0272 11.7078 54.0684 11.7437 54.1108 11.7806C54.1405 11.8065 54.1703 11.8324 54.2009 11.8591C54.4815 11.7829 54.6276 11.629 54.8223 11.4265C54.9724 11.2736 55.1333 11.1359 55.2957 10.9963C55.5478 10.7785 55.7943 10.5546 56.042 10.332C56.6243 9.80862 56.6243 9.80862 56.8974 9.5723C57.1548 9.34916 57.4065 9.11982 57.6587 8.89085C57.832 8.73461 58.0077 8.58153 58.1842 8.42891C58.3412 8.29132 58.4957 8.15117 58.6502 8.01088C59.2201 7.494 59.2201 7.494 59.4787 7.27789C59.5104 7.24617 59.5422 7.21445 59.5748 7.18176C59.795 7.05339 60.0106 7.07204 60.2583 7.07675C60.3355 7.07714 60.3355 7.07714 60.4141 7.07753C60.578 7.07856 60.7418 7.08086 60.9056 7.08319C61.0168 7.08411 61.1281 7.08495 61.2393 7.0857C61.5116 7.08771 61.784 7.09088 62.0563 7.09464C61.9119 7.27675 61.7748 7.44187 61.596 7.59094C61.3769 7.77729 61.1634 7.96907 60.9516 8.16358C60.7491 8.34923 60.546 8.53384 60.3379 8.71333C60.0999 8.91876 59.8681 9.13072 59.6363 9.34297C59.3403 9.61382 59.0416 9.88154 58.7423 10.1488C58.64 10.2404 58.5377 10.332 58.4354 10.4236C58.0263 10.7901 57.6172 11.1566 57.208 11.5231C57.1573 11.5686 57.1065 11.6141 57.0541 11.661C56.9535 11.7511 56.8528 11.8412 56.7521 11.9311C56.3491 12.2912 55.9497 12.6549 55.551 13.0196C55.7971 13.2678 56.0504 13.5073 56.3067 13.745C56.3477 13.7831 56.3887 13.8212 56.431 13.8604C56.6687 14.0804 56.9082 14.2974 57.1541 14.5083C57.4541 14.7672 57.7466 15.0348 58.0413 15.2997C58.2724 15.5071 58.5037 15.714 58.7385 15.9172C58.9959 16.1403 59.2474 16.3695 59.4996 16.5984C59.6745 16.7562 59.8518 16.911 60.0299 17.0651C60.172 17.1891 60.3126 17.3146 60.453 17.4405C60.5046 17.4867 60.5561 17.5329 60.6093 17.5805C60.7151 17.6758 60.8206 17.7714 60.9257 17.8673C61.2026 18.1188 61.4808 18.356 61.7863 18.5724C61.8288 18.6055 61.8288 18.6055 61.8722 18.6392C61.8722 18.6594 61.8722 18.6795 61.8722 18.7003C61.5459 18.7186 61.22 18.7318 60.8934 18.7406C60.7827 18.7442 60.6721 18.7492 60.5615 18.7556C59.5454 18.8129 59.5454 18.8129 59.1208 18.4458C58.9651 18.2931 58.8233 18.1325 58.6809 17.9673C58.5968 17.8905 58.5116 17.8148 58.4239 17.7421C58.245 17.5882 58.0695 17.431 57.8946 17.2725C57.6874 17.086 57.4761 16.9079 57.2579 16.7342C56.8856 16.4347 56.5402 16.109 56.1921 15.7824C56.0004 15.6028 55.805 15.4285 55.6055 15.2575C55.4629 15.1344 55.3229 15.0086 55.1828 14.8826C55.1314 14.8368 55.08 14.791 55.027 14.7438C54.9291 14.6556 54.8321 14.5662 54.7365 14.4756C54.6939 14.4361 54.6513 14.3965 54.6075 14.3558C54.5517 14.3027 54.5517 14.3027 54.4948 14.2484C54.3898 14.1691 54.3898 14.1691 54.2666 14.184C54.0965 14.2607 53.9841 14.366 53.848 14.4932C53.7939 14.5432 53.7398 14.5931 53.6841 14.6445C53.6318 14.6929 53.5796 14.7412 53.5258 14.791C53.4443 14.8627 53.3625 14.934 53.2803 15.0048C53.0945 15.1659 52.9109 15.3292 52.728 15.4935C52.5061 15.6928 52.2822 15.8898 52.0568 16.0852C51.9112 16.2125 51.7672 16.3415 51.6234 16.4708C51.4014 16.6701 51.1776 16.8671 50.9521 17.0625C50.8065 17.1899 50.6626 17.3189 50.5187 17.4481C50.0773 17.8445 50.0773 17.8445 49.8515 18.0322C49.7171 18.1481 49.7171 18.1481 49.6061 18.2905C49.3783 18.5462 49.1788 18.7075 48.8331 18.7448C48.5122 18.7611 48.1928 18.7484 47.8721 18.7346C47.7596 18.7319 47.6471 18.7294 47.5346 18.7271C47.2608 18.7211 46.9873 18.7117 46.7137 18.7003C46.8808 18.5332 47.0479 18.3669 47.2212 18.2064C47.2565 18.1737 47.2918 18.1411 47.3281 18.1074C47.3646 18.0738 47.4011 18.0401 47.4387 18.0055C47.4959 17.9527 47.4959 17.9527 47.5543 17.8988C47.784 17.6873 48.0159 17.4789 48.2528 17.2754C48.396 17.1514 48.5367 17.0249 48.6776 16.8984C48.8995 16.699 49.1234 16.5021 49.3488 16.3066C49.4944 16.1793 49.6384 16.0503 49.7823 15.921C50.0042 15.7217 50.228 15.5247 50.4535 15.3293C50.5991 15.202 50.743 15.073 50.8869 14.9437C51.1089 14.7444 51.3327 14.5474 51.5581 14.352C51.7563 14.1787 51.9516 14.0023 52.1474 13.8263C52.3231 13.6695 52.5008 13.5153 52.6796 13.362C52.8026 13.2521 52.9189 13.1368 53.0349 13.0196C52.7619 12.7414 52.4841 12.474 52.1879 12.2203C52.0282 12.0819 51.8718 11.9401 51.7154 11.798C51.524 11.6242 51.332 11.4515 51.1362 11.2826C50.8939 11.0731 50.6581 10.8568 50.422 10.6404C50.2127 10.449 50.0006 10.2613 49.7858 10.076C49.5703 9.88746 49.3592 9.69392 49.1472 9.50143C49.0136 9.38099 48.879 9.26223 48.7428 9.14472C48.5005 8.93524 48.2647 8.7189 48.0286 8.50255C47.8197 8.3115 47.6081 8.12427 47.3938 7.9393C46.7628 7.38784 46.7628 7.38784 46.4683 7.09464Z" fill="white"/>
<path d="M64.0564 7.08887C64.583 7.08887 65.1095 7.08887 65.652 7.08887C65.652 10.9187 65.652 14.7486 65.652 18.6945C65.1255 18.6945 64.5989 18.6945 64.0564 18.6945C64.0564 14.8646 64.0564 11.0348 64.0564 7.08887Z" fill="white"/>
<path d="M71.1109 7.0783C71.1958 7.07822 71.1958 7.07822 71.2825 7.07814C71.4724 7.07804 71.6623 7.07838 71.8521 7.07871C71.9882 7.07873 72.1243 7.07872 72.2604 7.07869C72.63 7.07867 72.9996 7.07903 73.3692 7.07945C73.7553 7.07983 74.1415 7.07987 74.5277 7.07994C75.176 7.08011 75.8242 7.08049 76.4724 7.08104C77.1401 7.0816 77.8077 7.08203 78.4754 7.08229C78.5371 7.08232 78.5371 7.08232 78.6001 7.08234C78.8066 7.08242 79.0131 7.0825 79.2196 7.08257C80.9324 7.08321 82.6452 7.0843 84.358 7.08565C84.358 7.60973 84.358 8.13382 84.358 8.67379C84.1017 8.67412 84.1017 8.67412 83.8403 8.67446C82.2311 8.67668 80.6219 8.68023 79.0127 8.68502C78.8479 8.68551 78.6832 8.68599 78.5184 8.68646C78.4775 8.68658 78.4365 8.6867 78.3943 8.68682C77.732 8.68872 77.0697 8.68975 76.4074 8.69047C75.7273 8.69123 75.0473 8.69293 74.3672 8.69545C73.9854 8.69683 73.6037 8.69779 73.2219 8.69772C72.8623 8.69768 72.5028 8.69877 72.1432 8.70074C72.0115 8.70125 71.8797 8.70136 71.7479 8.70102C71.5675 8.70061 71.3872 8.70171 71.2068 8.70317C71.1293 8.70246 71.1293 8.70246 71.0501 8.70173C70.5816 8.7084 70.1467 8.82402 69.8133 9.16245C69.7728 9.16245 69.7323 9.16245 69.6906 9.16245C69.6642 9.2156 69.6642 9.2156 69.6373 9.26982C69.5943 9.35455 69.5496 9.43846 69.5021 9.52083C69.2823 9.93739 69.2592 10.3489 69.3223 10.8117C69.4026 11.0318 69.5087 11.2223 69.6292 11.4225C69.6494 11.483 69.6697 11.5434 69.6906 11.6057C69.8029 11.6742 69.8029 11.6742 69.936 11.7279C69.9979 11.7592 69.9979 11.7592 70.0609 11.7911C70.1225 11.8222 70.1225 11.8222 70.1854 11.8539C70.2472 11.8852 70.2472 11.8852 70.3103 11.9171C70.5614 12.0357 70.7629 12.0412 71.0384 12.0417C71.0821 12.0419 71.1258 12.0421 71.1709 12.0423C71.3179 12.0428 71.4649 12.0429 71.6118 12.0429C71.7171 12.0432 71.8223 12.0435 71.9276 12.0439C72.1545 12.0446 72.3815 12.0451 72.6084 12.0455C72.9677 12.0461 73.327 12.0474 73.6864 12.0487C74.7083 12.0525 75.7302 12.0558 76.7521 12.0578C77.3163 12.059 77.8804 12.0607 78.4446 12.0632C78.743 12.0645 79.0413 12.0654 79.3397 12.0656C79.6208 12.0657 79.902 12.0667 80.1831 12.0683C80.2858 12.0687 80.3885 12.0689 80.4912 12.0687C81.5938 12.0668 82.5412 12.2663 83.3608 13.0507C83.9897 13.7028 84.3485 14.4683 84.3772 15.3776C84.3579 16.219 84.0717 17.0538 83.4849 17.6765C82.4274 18.634 81.3211 18.7101 79.9622 18.7052C79.8279 18.7051 79.6936 18.7051 79.5593 18.7052C79.1962 18.7052 78.8331 18.7045 78.47 18.7037C78.0899 18.7029 77.7099 18.7028 77.3298 18.7027C76.6109 18.7023 75.8919 18.7013 75.1729 18.7001C74.3541 18.6987 73.5353 18.6981 72.7165 18.6974C71.0328 18.6962 69.3491 18.694 67.6654 18.6913C67.6654 18.1874 67.6654 17.6834 67.6654 17.1642C67.8339 17.1639 68.0025 17.1635 68.1761 17.1631C69.7636 17.1597 71.3512 17.1552 72.9387 17.1498C73.7548 17.1471 74.571 17.1447 75.3872 17.1431C76.0987 17.1417 76.8101 17.1396 77.5216 17.1368C77.8982 17.1354 78.2748 17.1342 78.6515 17.1338C79.0062 17.1335 79.3609 17.1322 79.7156 17.1304C79.8456 17.1298 79.9756 17.1296 80.1056 17.1297C80.2836 17.1298 80.4615 17.1288 80.6395 17.1275C80.6904 17.1278 80.7414 17.1281 80.794 17.1284C81.3037 17.1223 81.7638 17.0228 82.1487 16.6756C82.1892 16.6756 82.2297 16.6756 82.2715 16.6756C82.2891 16.6404 82.3067 16.6052 82.3249 16.5689C82.3689 16.4815 82.4132 16.3941 82.4577 16.3069C82.4785 16.2661 82.4993 16.2252 82.5208 16.1831C82.5417 16.1421 82.5627 16.1011 82.5843 16.0588C82.7706 15.6678 82.7697 15.236 82.6361 14.8281C82.4038 14.3263 82.1396 14.0752 81.6518 13.8322C81.23 13.6781 80.765 13.7183 80.3219 13.7201C80.2174 13.7199 80.1128 13.7195 80.0082 13.7191C79.7836 13.7184 79.559 13.7183 79.3344 13.7185C78.9787 13.719 78.6229 13.718 78.2671 13.7168C77.5115 13.7145 76.7558 13.7137 76.0002 13.7131C75.1853 13.7124 74.3704 13.7115 73.5556 13.7088C73.2026 13.7076 72.8496 13.7074 72.4966 13.7078C72.2761 13.7079 72.0556 13.7073 71.8351 13.7064C71.7336 13.7062 71.6321 13.7062 71.5306 13.7066C70.386 13.7109 69.4093 13.5086 68.5581 12.6957C67.8913 11.9546 67.6421 11.1568 67.6524 10.1798C67.7048 9.27596 68.1109 8.49417 68.77 7.87972C69.4342 7.30704 70.2476 7.07539 71.1109 7.0783Z" fill="white"/>
</svg>
