<svg width="74" height="12" viewBox="0 0 74 12" fill="none" xmlns="http://www.w3.org/2000/svg">
<path d="M21.8543 0.0800032C21.9112 0.0798988 21.9681 0.0797944 22.0266 0.0796869C22.2157 0.0794868 22.4048 0.0801557 22.594 0.0808252C22.7301 0.0808597 22.8662 0.0808403 23.0023 0.0807712C23.3709 0.0807362 23.7394 0.0814535 24.108 0.0823073C24.4935 0.083072 24.8791 0.0831428 25.2646 0.0832877C25.9114 0.083624 26.5581 0.0843866 27.2049 0.085478C27.8709 0.0866006 28.5368 0.0874647 29.2028 0.0879833C29.2644 0.0880315 29.2644 0.0880315 29.3273 0.0880806C29.5335 0.08824 29.7397 0.0883944 29.9459 0.0885463C31.6546 0.0898225 33.3633 0.0919954 35.072 0.094694C35.072 0.618781 35.072 1.14287 35.072 1.68284C34.8157 1.68317 34.8157 1.68317 34.5542 1.68351C32.945 1.68572 31.3358 1.68928 29.7267 1.69407C29.5619 1.69455 29.3971 1.69503 29.2324 1.69551C29.1914 1.69563 29.1505 1.69575 29.1083 1.69587C28.446 1.69776 27.7836 1.6988 27.1213 1.69952C26.4413 1.70028 25.7612 1.70198 25.0812 1.7045C24.6994 1.70588 24.3176 1.70683 23.9358 1.70677C23.5763 1.70673 23.2167 1.70782 22.8572 1.70978C22.7254 1.7103 22.5937 1.71041 22.4619 1.71007C22.2815 1.70966 22.1012 1.71076 21.9208 1.71222C21.8432 1.71151 21.8432 1.71151 21.7641 1.71078C21.2834 1.71762 20.8346 1.85363 20.4736 2.17913C19.7634 3.05555 20.0091 3.94602 19.9749 5.10345C24.957 5.10345 29.939 5.10345 35.072 5.10345C35.072 5.62753 35.072 6.15162 35.072 6.69159C30.09 6.69159 25.1079 6.69159 19.9749 6.69159C19.9046 8.29056 19.9046 8.29056 20.4122 9.58155C20.896 10.0317 21.4248 10.1211 22.061 10.1219C22.1444 10.1223 22.1444 10.1223 22.2296 10.1228C22.4161 10.1237 22.6026 10.1242 22.789 10.1247C22.9227 10.1253 23.0564 10.1259 23.19 10.1266C23.553 10.1282 23.916 10.1295 24.279 10.1307C24.6583 10.1321 25.0376 10.1337 25.4169 10.1354C26.1353 10.1384 26.8536 10.1412 27.5719 10.1438C28.3897 10.1468 29.2074 10.1502 30.0252 10.1536C31.7075 10.1605 33.3897 10.167 35.072 10.1733C35.072 10.6772 35.072 11.1811 35.072 11.7003C33.3073 11.7032 31.5426 11.7053 29.7778 11.7067C28.9584 11.7073 28.139 11.7082 27.3196 11.7096C26.6053 11.7108 25.891 11.7116 25.1767 11.7118C24.7986 11.712 24.4204 11.7124 24.0423 11.7133C23.6861 11.7141 23.33 11.7143 22.9738 11.7142C22.8433 11.7142 22.7129 11.7144 22.5825 11.7149C21.3273 11.7192 20.262 11.6048 19.2905 10.7256C18.6179 10.033 18.3597 9.17714 18.3624 8.23347C18.3621 8.17736 18.3618 8.12126 18.3615 8.06345C18.3606 7.87992 18.3607 7.6964 18.3608 7.51286C18.3606 7.38402 18.3603 7.25518 18.36 7.12634C18.3596 6.857 18.3596 6.58766 18.3599 6.31832C18.3603 5.97481 18.3592 5.63131 18.3578 5.28779C18.3569 5.02189 18.3569 4.756 18.3571 4.49009C18.357 4.36352 18.3567 4.23694 18.3561 4.11036C18.3507 2.85969 18.518 1.88465 19.4226 0.949847C20.1262 0.349077 20.938 0.0737467 21.8543 0.0800032Z" fill="#080808"/>
<path d="M60.7337 0.0873345C60.8186 0.0872562 60.8186 0.0872562 60.9053 0.0871763C61.0952 0.0870757 61.2851 0.0874118 61.4749 0.0877455C61.611 0.0877627 61.7471 0.0877531 61.8832 0.0877185C62.2528 0.0877009 62.6224 0.0880604 62.992 0.0884865C63.3781 0.088868 63.7643 0.0889042 64.1505 0.0889767C64.7988 0.0891451 65.447 0.0895268 66.0952 0.0900719C66.7629 0.0906327 67.4305 0.091065 68.0982 0.0913246C68.1599 0.0913486 68.1599 0.0913486 68.2229 0.0913732C68.4294 0.0914529 68.6359 0.0915301 68.8424 0.091606C70.5552 0.0922447 72.268 0.0933316 73.9808 0.0946799C73.9808 0.618766 73.9808 1.14285 73.9808 1.68282C73.7245 1.68315 73.7245 1.68315 73.4631 1.6835C71.8539 1.68571 70.2447 1.68926 68.6355 1.69405C68.4708 1.69454 68.306 1.69502 68.1412 1.6955C68.1003 1.69562 68.0593 1.69573 68.0171 1.69586C67.3548 1.69775 66.6925 1.69879 66.0302 1.69951C65.3501 1.70027 64.6701 1.70197 63.99 1.70448C63.6082 1.70586 63.2265 1.70682 62.8447 1.70676C62.4851 1.70671 62.1256 1.70781 61.766 1.70977C61.6343 1.71029 61.5025 1.71039 61.3708 1.71005C61.1903 1.70964 61.01 1.71074 60.8296 1.7122C60.7521 1.71149 60.7521 1.71149 60.6729 1.71077C60.2044 1.71744 59.7695 1.83305 59.4361 2.17148C59.3956 2.17148 59.3551 2.17148 59.3134 2.17148C59.287 2.22463 59.287 2.22463 59.2601 2.27885C59.2171 2.36359 59.1724 2.4475 59.1249 2.52986C58.9051 2.94643 58.882 3.35793 58.9451 3.8207C59.0254 4.04082 59.1315 4.23138 59.252 4.43153C59.2723 4.492 59.2925 4.55247 59.3134 4.61477C59.4257 4.68328 59.4257 4.68328 59.5588 4.73694C59.6207 4.76824 59.6207 4.76824 59.6837 4.80017C59.7453 4.83123 59.7453 4.83123 59.8082 4.86292C59.87 4.89422 59.87 4.89422 59.9331 4.92615C60.1842 5.04469 60.3857 5.05023 60.6612 5.05078C60.7049 5.05095 60.7486 5.05113 60.7937 5.0513C60.9407 5.05181 61.0877 5.05189 61.2346 5.05198C61.3399 5.05227 61.4451 5.05258 61.5504 5.05292C61.7773 5.05361 62.0043 5.05413 62.2312 5.05452C62.5905 5.05517 62.9499 5.05641 63.3092 5.05776C64.3311 5.06154 65.353 5.06484 66.3749 5.06687C66.9391 5.06799 67.5032 5.06976 68.0674 5.07224C68.3658 5.07352 68.6641 5.07447 68.9625 5.07461C69.2436 5.07474 69.5248 5.07572 69.8059 5.07732C69.9086 5.07776 70.0113 5.07789 70.114 5.07768C71.2166 5.0758 72.164 5.27537 72.9836 6.05975C73.6125 6.71183 73.9713 7.47732 74 8.38661C73.9807 9.22803 73.6945 10.0629 73.1078 10.6855C72.0502 11.6431 70.9439 11.7191 69.585 11.7142C69.4507 11.7142 69.3164 11.7142 69.1821 11.7142C68.819 11.7143 68.4559 11.7136 68.0928 11.7127C67.7127 11.7119 67.3327 11.7119 66.9526 11.7117C66.2337 11.7114 65.5147 11.7104 64.7957 11.7091C63.9769 11.7078 63.1581 11.7071 62.3393 11.7065C60.6556 11.7052 58.9719 11.703 57.2882 11.7003C57.2882 11.1964 57.2882 10.6925 57.2882 10.1733C57.4567 10.1729 57.6253 10.1725 57.7989 10.1722C59.3864 10.1687 60.974 10.1643 62.5615 10.1589C63.3776 10.1561 64.1938 10.1537 65.01 10.1521C65.7215 10.1507 66.4329 10.1487 67.1444 10.1459C67.521 10.1444 67.8977 10.1433 68.2743 10.1429C68.629 10.1425 68.9837 10.1413 69.3384 10.1394C69.4684 10.1389 69.5984 10.1386 69.7284 10.1388C69.9064 10.1389 70.0843 10.1378 70.2623 10.1365C70.3132 10.1368 70.3642 10.1371 70.4168 10.1374C70.9265 10.1314 71.3866 10.0318 71.7715 9.68461C71.812 9.68461 71.8525 9.68461 71.8943 9.68461C71.9119 9.64941 71.9295 9.61421 71.9477 9.57795C71.9917 9.49049 72.036 9.40315 72.0805 9.31597C72.1013 9.2751 72.1221 9.23423 72.1436 9.19213C72.1645 9.15111 72.1855 9.11008 72.2071 9.06782C72.3934 8.67679 72.3925 8.24498 72.2589 7.83711C72.0267 7.33537 71.7624 7.0842 71.2746 6.84123C70.8528 6.68717 70.3878 6.72738 69.9447 6.72915C69.8402 6.7289 69.7356 6.72857 69.631 6.72816C69.4064 6.72744 69.1818 6.72729 68.9572 6.72757C68.6015 6.72799 68.2457 6.72701 67.8899 6.72583C67.1343 6.72352 66.3786 6.72274 65.623 6.72211C64.8081 6.72144 63.9932 6.72049 63.1784 6.71779C62.8254 6.71668 62.4724 6.71643 62.1194 6.71687C61.8989 6.71697 61.6784 6.7163 61.4579 6.71545C61.3564 6.7152 61.2549 6.71527 61.1534 6.71568C60.0088 6.71994 59.0321 6.51768 58.1809 5.70471C57.5141 4.96366 57.2649 4.1658 57.2752 3.18888C57.3276 2.28499 57.7337 1.5032 58.3928 0.88875C59.057 0.316072 59.8705 0.0844275 60.7337 0.0873345Z" fill="#080808"/>
<path d="M2.6687 0.339038C2.92534 0.520192 3.16864 0.714419 3.41072 0.91428C3.57103 1.04654 3.73281 1.17698 3.89452 1.30754C3.97772 1.37476 4.06085 1.44208 4.14389 1.50949C4.40687 1.72285 4.67199 1.93314 4.9394 2.14097C5.33906 2.45163 5.73253 2.76956 6.12557 3.08846C6.30219 3.23173 6.47958 3.37398 6.65776 3.51532C6.87739 3.68954 7.09549 3.86554 7.31318 4.04216C7.6996 4.35565 8.08814 4.66586 8.48107 4.97123C8.79802 5.21817 9.10998 5.47101 9.42182 5.72431C9.68482 5.93756 9.94986 6.14786 10.2172 6.35565C10.5696 6.62946 10.9168 6.90908 11.2631 7.19042C11.5246 7.40254 11.7884 7.6114 12.0545 7.81781C12.3773 8.06836 12.6943 8.3253 13.0096 8.58515C13.4639 8.95947 13.9242 9.3251 14.3904 9.68464C14.4411 9.72448 14.4918 9.76432 14.5441 9.80537C14.587 9.8386 14.63 9.87183 14.6742 9.90606C14.7092 9.9333 14.7442 9.96055 14.7802 9.98862C14.8979 10.0685 14.8979 10.0685 15.1268 10.1122C15.1268 6.80644 15.1268 3.50066 15.1268 0.0947086C15.6534 0.0947086 16.18 0.0947086 16.7225 0.0947086C16.7282 1.40515 16.7325 2.71559 16.7352 4.02604C16.7365 4.63455 16.7382 5.24305 16.741 5.85156C16.7434 6.38212 16.745 6.91268 16.7456 7.44325C16.7459 7.72401 16.7466 8.00476 16.7484 8.28551C16.7501 8.55018 16.7506 8.81483 16.7502 9.0795C16.7503 9.17624 16.7508 9.27299 16.7517 9.36972C16.7575 9.99373 16.7285 10.5935 16.3389 11.1124C15.9485 11.4833 15.5279 11.6968 14.9811 11.7194C14.0463 11.6896 13.3677 10.9496 12.6881 10.3878C12.4607 10.2004 12.2301 10.0177 11.997 9.83734C11.6753 9.5882 11.3596 9.33258 11.0457 9.07381C10.6964 8.78593 10.3441 8.50303 9.98638 8.22558C9.71272 8.0129 9.4429 7.79582 9.17394 7.5773C8.8694 7.32992 8.56321 7.08509 8.25339 6.84431C7.90112 6.57054 7.55396 6.29093 7.2077 6.00968C6.9447 5.79642 6.67965 5.58612 6.41228 5.37833C6.06001 5.10456 5.71285 4.82495 5.36659 4.5437C5.10359 4.33045 4.83855 4.12015 4.57118 3.91236C4.21931 3.6389 3.8725 3.35967 3.5267 3.07866C3.21674 2.82724 2.90336 2.58051 2.58772 2.33619C2.40101 2.19115 2.21992 2.04242 2.04349 1.88518C1.88443 1.72454 1.88443 1.72454 1.68678 1.74393C1.66653 5.02955 1.64628 8.31517 1.62541 11.7004C1.09885 11.7004 0.572299 11.7004 0.0297866 11.7004C0.024098 10.3809 0.0197201 9.06144 0.0170677 7.74196C0.0158032 7.12928 0.01408 6.5166 0.0112676 5.90391C0.00881681 5.36975 0.00723615 4.83559 0.00668964 4.30141C0.0063703 4.01871 0.00562258 3.73602 0.00383187 3.45332C0.00215803 3.1869 0.0016532 2.9205 0.00202081 2.65407C0.00195362 2.55661 0.0014699 2.45915 0.00052392 2.3617C-0.00519064 1.74231 0.0297546 1.19877 0.41335 0.686444C1.05329 0.0639849 1.8785 -0.105649 2.6687 0.339038Z" fill="#080808"/>
<path d="M36.7292 0.0946431C39.0857 -0.061273 39.0857 -0.061273 39.5954 0.378864C39.732 0.528456 39.8565 0.680981 39.9709 0.848032C40.0663 0.982221 40.1797 1.07998 40.3079 1.18267C40.6458 1.47248 40.9751 1.7718 41.3061 2.06932C41.5385 2.27791 41.7712 2.48601 42.0071 2.69064C42.3501 2.9882 42.6868 3.29285 43.0245 3.59638C43.3376 3.87748 43.6529 4.15591 43.9709 4.43149C44.063 4.51164 44.1551 4.59181 44.2471 4.672C44.2882 4.70783 44.3294 4.74365 44.3718 4.78057C44.4015 4.80647 44.4312 4.83238 44.4619 4.85907C44.7424 4.78291 44.8886 4.62896 45.0833 4.42648C45.2334 4.27362 45.3942 4.13588 45.5567 3.99628C45.8088 3.77854 46.0553 3.55463 46.303 3.33201C46.8853 2.80862 46.8853 2.80862 47.1583 2.5723C47.4158 2.34916 47.6675 2.11982 47.9197 1.89085C48.093 1.73461 48.2687 1.58153 48.4452 1.42891C48.6022 1.29132 48.7567 1.15117 48.9112 1.01088C49.4811 0.494002 49.4811 0.494002 49.7397 0.27789C49.7714 0.246168 49.8031 0.214446 49.8358 0.181763C50.056 0.0533859 50.2716 0.0720378 50.5193 0.0767479C50.5964 0.0771369 50.5964 0.0771369 50.6751 0.0775336C50.839 0.0785575 51.0028 0.080857 51.1666 0.0831902C51.2778 0.0841095 51.389 0.0849456 51.5003 0.0856955C51.7726 0.0877134 52.0449 0.0908753 52.3173 0.0946431C52.1729 0.276745 52.0358 0.441875 51.857 0.590937C51.6379 0.777294 51.4244 0.969068 51.2126 1.16358C51.0101 1.34923 50.807 1.53384 50.5989 1.71333C50.3609 1.91876 50.1291 2.13072 49.8973 2.34297C49.6013 2.61382 49.3026 2.88154 49.0033 3.14876C48.901 3.24037 48.7987 3.33199 48.6964 3.42363C48.2873 3.79012 47.8782 4.15662 47.469 4.52311C47.4182 4.56862 47.3674 4.61414 47.3151 4.66103C47.2145 4.75113 47.1138 4.84116 47.0131 4.93112C46.6101 5.29117 46.2107 5.65489 45.812 6.01963C46.0581 6.26781 46.3114 6.50731 46.5677 6.74498C46.6087 6.78307 46.6497 6.82115 46.692 6.86039C46.9297 7.08036 47.1692 7.29738 47.4151 7.50827C47.7151 7.76718 48.0076 8.03483 48.3023 8.29972C48.5334 8.50711 48.7647 8.71401 48.9994 8.91722C49.2568 9.14029 49.5084 9.36955 49.7606 9.59844C49.9355 9.75618 50.1127 9.91098 50.2909 10.0651C50.433 10.1891 50.5736 10.3146 50.714 10.4405C50.7656 10.4867 50.8171 10.5329 50.8703 10.5805C50.9761 10.6758 51.0816 10.7714 51.1867 10.8673C51.4636 11.1188 51.7417 11.356 52.0473 11.5724C52.0898 11.6055 52.0898 11.6055 52.1332 11.6392C52.1332 11.6594 52.1332 11.6795 52.1332 11.7003C51.8069 11.7186 51.481 11.7318 51.1544 11.7406C51.0437 11.7442 50.9331 11.7492 50.8225 11.7556C49.8064 11.8129 49.8064 11.8129 49.3818 11.4458C49.2261 11.2931 49.0843 11.1325 48.9419 10.9673C48.8578 10.8905 48.7726 10.8148 48.6849 10.7421C48.506 10.5882 48.3305 10.431 48.1556 10.2725C47.9484 10.086 47.7371 9.90787 47.5189 9.7342C47.1466 9.43474 46.8012 9.10902 46.4531 8.78241C46.2614 8.60278 46.0659 8.42847 45.8664 8.25749C45.7239 8.13438 45.5839 8.00856 45.4438 7.88264C45.3924 7.83682 45.341 7.79099 45.288 7.74377C45.19 7.65557 45.0931 7.56623 44.9974 7.47559C44.9549 7.43606 44.9123 7.39653 44.8685 7.35581C44.8127 7.30266 44.8127 7.30266 44.7558 7.24844C44.6508 7.16909 44.6508 7.16909 44.5276 7.18401C44.3575 7.26068 44.245 7.36604 44.109 7.49324C44.0549 7.54316 44.0008 7.59308 43.945 7.64452C43.8928 7.69286 43.8406 7.74121 43.7868 7.79102C43.7053 7.86267 43.6235 7.93397 43.5413 8.00481C43.3555 8.16587 43.1719 8.32916 42.989 8.49347C42.767 8.69283 42.5432 8.88976 42.3178 9.0852C42.1722 9.21253 42.0282 9.34155 41.8843 9.47078C41.6624 9.67015 41.4386 9.86708 41.2131 10.0625C41.0675 10.1899 40.9236 10.3189 40.7797 10.4481C40.3383 10.8445 40.3383 10.8445 40.1125 11.0322C39.9781 11.1481 39.9781 11.1481 39.8671 11.2905C39.6393 11.5462 39.4398 11.7075 39.0941 11.7448C38.7732 11.7611 38.4538 11.7484 38.1331 11.7346C38.0206 11.7319 37.9081 11.7294 37.7956 11.7271C37.5218 11.7211 37.2483 11.7117 36.9747 11.7003C37.1417 11.5332 37.3089 11.3669 37.4822 11.2064C37.5175 11.1737 37.5528 11.1411 37.5891 11.1074C37.6256 11.0738 37.6621 11.0401 37.6997 11.0055C37.7569 10.9527 37.7569 10.9527 37.8153 10.8988C38.045 10.6873 38.2769 10.4789 38.5138 10.2754C38.6569 10.1514 38.7977 10.0249 38.9386 9.89836C39.1605 9.69899 39.3844 9.50206 39.6098 9.30662C39.7554 9.17929 39.8994 9.05027 40.0432 8.92104C40.2652 8.72167 40.489 8.52474 40.7145 8.32931C40.8601 8.20197 41.004 8.07296 41.1479 7.94372C41.3699 7.74436 41.5937 7.54743 41.8191 7.35199C42.0173 7.17868 42.2126 7.00231 42.4084 6.82635C42.5841 6.66954 42.7618 6.51533 42.9406 6.36203C43.0636 6.25214 43.1799 6.13683 43.2959 6.01963C43.0229 5.7414 42.7451 5.47398 42.4489 5.22031C42.2891 5.08192 42.1328 4.94012 41.9764 4.79798C41.785 4.62419 41.593 4.45152 41.3972 4.2826C41.1549 4.07312 40.9191 3.85678 40.683 3.64043C40.4737 3.44896 40.2616 3.26131 40.0468 3.07599C39.8312 2.88746 39.6202 2.69392 39.4082 2.50143C39.2746 2.38099 39.14 2.26223 39.0038 2.14472C38.7615 1.93524 38.5256 1.7189 38.2895 1.50255C38.0807 1.3115 37.8691 1.12427 37.6548 0.939297C37.0238 0.387838 37.0238 0.387838 36.7292 0.0946431Z" fill="#080808"/>
<path d="M54.0356 0.0946655C54.5622 0.0946655 55.0888 0.0946655 55.6313 0.0946655C55.6313 3.92453 55.6313 7.75439 55.6313 11.7003C55.1047 11.7003 54.5782 11.7003 54.0356 11.7003C54.0356 7.87045 54.0356 4.04058 54.0356 0.0946655Z" fill="#080808"/>
</svg>
